<svg width="19" height="19" viewBox="0 0 19 19" fill="none" xmlns="http://www.w3.org/2000/svg">
<path fill-rule="evenodd" clip-rule="evenodd" d="M13.6667 7.83558C13.6667 8.60162 13.5158 9.36017 13.2227 10.0679C12.9295 10.7756 12.4998 11.4187 11.9582 11.9604C11.4165 12.502 10.7734 12.9317 10.0657 13.2249C9.35797 13.518 8.59943 13.6689 7.83338 13.6689C7.06734 13.6689 6.30879 13.518 5.60106 13.2249C4.89333 12.9317 4.25027 12.502 3.70859 11.9604C3.16692 11.4187 2.73724 10.7756 2.44409 10.0679C2.15093 9.36017 2.00005 8.60162 2.00005 7.83558C2.00005 6.28848 2.61463 4.80475 3.70859 3.71079C4.80256 2.61683 6.28629 2.00225 7.83338 2.00225C9.38048 2.00225 10.8642 2.61683 11.9582 3.71079C13.0521 4.80475 13.6667 6.28848 13.6667 7.83558ZM12.515 13.6956C11.0174 14.8921 9.11849 15.4697 7.20827 15.3098C5.29806 15.15 3.52156 14.2647 2.24362 12.836C0.965675 11.4072 0.283305 9.54338 0.336648 7.62723C0.38999 5.71109 1.17499 3.88809 2.53044 2.53264C3.88589 1.17719 5.70889 0.392187 7.62504 0.338845C9.54119 0.285503 11.405 0.967872 12.8338 2.24581C14.2625 3.52375 15.1478 5.30026 15.3076 7.21047C15.4675 9.12068 14.8899 11.0196 13.6934 12.5172L18.4234 17.2456C18.5009 17.3231 18.5623 17.415 18.6043 17.5163C18.6462 17.6175 18.6678 17.726 18.6678 17.8356C18.6678 17.9452 18.6462 18.0537 18.6043 18.1549C18.5623 18.2561 18.5009 18.3481 18.4234 18.4256C18.3459 18.5031 18.2539 18.5645 18.1527 18.6065C18.0515 18.6484 17.943 18.67 17.8334 18.67C17.7238 18.67 17.6153 18.6484 17.5141 18.6065C17.4128 18.5645 17.3209 18.5031 17.2434 18.4256L12.5167 13.6956H12.515Z" fill="#BABFC4"/>
</svg>